<?xml version="1.0" encoding="UTF-8"?><svg id="Calque_2" xmlns="http://www.w3.org/2000/svg" viewBox="0 0 855.1 695.65"><defs><style>.cls-1{fill:#ef71b8;}.cls-2{fill:#f5241f;}.cls-3{fill:#0e75ee;}.cls-4{fill:#fff;}.cls-5{fill:#fcac01;}.cls-6{fill:#13b541;}</style></defs><path class="cls-2" d="M485.19,163.43c11.44-16.93,11.76-17.4,11.92-17.64,10.79-16.12,17.92-32.28,22.11-41.1,6.81-14.35,21.31-41.88,35.16-58.15C580.44,15.93,624.43-1.99,666.66.18c4.67.24,36.52,2.21,65.71,20.5,5.12,3.21,19.29,12.08,29.41,24.78,1.62,2.03,10.63,13.57,10.63,13.57-8.43,7.24-11.8,16.03-11.8,16.03-3.88,10.11-.84,20.46-.22,22.21.32.9.63,1.8.96,2.69.9,2.41,2.63,6.93,5.96,15.4,0,0-5.61,8.64-7.98,12.7-5.35,9.13-6.43,15.62-8.86,22.6,0,0-4.83,13.86-18.22,29.64-25.07,29.54-69.74,29.94-74.44,29.91-4.86-.02-30.4-.49-55.24-14.81-8.42-4.85-10.97-7.96-22.6-14.08-17.25-9.07-32.27-13.09-39.3-14.74-21.94-5.13-41.33-4.76-55.48-3.16Z"/><path class="cls-5" d="M772.42,59.03h0s4.73,1.19,82.69,20.86c0,0,0,0,0,0-.16-.05-37.34,13.53-48.19,16.83-7.63,2.32-15.07,4.92-29.93,10.12-.71.25-2.56.91-4.56,2.4-2.6,1.94-4.16,4.32-5.1,6.12-1.75-4.01-3.4-8.26-5.03-12.69-.95-2.59-1.28-3.68-1.28-3.68-1.24-4.16-1.91-6.38-2.18-9.7-.2-2.43-.54-7.17,1.28-12.72.98-2.99,2.28-5.24,3.33-7.06,1.15-2,2.14-3.71,3.9-5.69,2.14-2.4,5.08-4.8,5.08-4.8Z"/><circle class="cls-4" cx="694.52" cy="80.21" r="18.55"/><path class="cls-5" d="M633.22,223.74s19.96.33,30.39-.15c8.46-.39,28.66-1.33,49.21-11.56,17.89-8.91,30.05-21.88,37.87-32.8,1.84,11.47,3.89,27.71,4.49,47.27.45,14.82,2.27,40.13-4.8,70.17-9.33,39.65-32.18,65.88-46.74,82.21,0,0-56.54,63.44-168.86,92.29-3.59.92-43.01,10.93-43.02,10.94,0,0,12.95-13.83,14.72-15.74,16.92-18.19,31.11-42.04,34.51-47.76,2.14-3.6.53-1.04,24.38-46.08,8.32-15.71,9.53-17.93,11.63-21.54,10.95-18.75,14.26-20.29,26.42-39.12,6.17-9.56,18.69-29.88,25.38-50.45,1.96-6.04,4.03-12.54,4.46-21.25.3-6.13-.05-16.42-.05-16.42Z"/><path class="cls-1" d="M184.44,454.68h0c6.93-7.77,84.51-96.33,176.43-184.2,47.15-45.07,103.24-94.89,155.34-93.73,26.5.59,49.96,10.95,49.96,10.95,13.96,6.16,39.13,17.27,47.82,38.02,17.92,42.78-44.5,102.19-55.84,112.6-7.36,6.75-32.93,29.31-96.46,53.56-53.66,20.49-77.74,20.56-215.08,49.63-7.66,1.62-61.19,12.97-62.17,13.18h0Z"/><path class="cls-3" d="M553,363.52h0s-27.47,54.84-46.35,80.68c-68.55,93.81-241.3,102.82-253.54,103.45-9.55.5-34.99,1.27-66.04,12.42-6.94,2.49-16.91,6.49-53.34,27.87-30.62,17.97-80.41,48.5-105.17,46.79-9.85-.68-20.38-6.78-23.55-9.09-3.35-2.45-4.29-4.95-4.55-5.72,0,0-.82-2.46-.28-5.41,1.74-9.56,72.09-62.4,99.21-85.33,16.87-14.26,26.69-25.13,49.41-38.6,4.6-2.73,17.74-10.31,35.63-17.37,57.08-22.52,118.05-22.19,200.62-41.42,32.96-7.68,59.69-13.91,93.56-29.36,30.22-13.79,71.8-37.52,74.37-38.9Z"/><path class="cls-6" d="M297.81,557.56c.05-4.06,27.73-3.73,73.79-15.92,19.53-5.17,31.43-9.7,35.95-11.47,17.63-6.9,26.61-10.42,35.59-16.09,1.78-1.12,6.16-3.98,12.64-6.45,6.94-2.65,12.54-3.43,13.9-3.64,12.71-1.92,76.23-17.33,116.32-31.86,24.7-8.96,73.37-27.17,117.86-71.06,8.84-8.73,15.61-16.58,20.18-22.19-4.03,9.73-10.1,23.12-18.78,38.3-12.1,21.17-42.53,73.02-105.17,113.46-49.75,32.12-100.63,44.66-125.37,46.71-2.53.21-40.93,3.3-40.93,3.31,0,0,14.31,24.35,14.31,24.35,0,0-6.67,2.03-13.34,4.07-4.25,1.29-8.5,2.59-12.74,3.88-.2.06-.4.12-.6.18-9.16-11.59-27.48-34.78-27.48-34.78h0s-27.24-5.42-52.12-10.34c-38.4-7.59-44.02-8.61-44-10.44Z"/><path class="cls-3" d="M421.41,613.13h0s26.69-8.13,26.69-8.13h0s14.12,19.56,28.33,39.21c10.24,14.16,21.61,29.84,21.61,29.84h0s17.61.9,35.41,2.22c.99.07,20.33,1.57,34.93,5.79,3.89,1.12,7.33,2.41,10.53,5.26,3.41,3.05,7.03,8.32,7.03,8.32h0c-99.32-.35-109.24-.36-125.03-.37,0,0-.72,0-63.22,0h0s4.6-5.35,4.98-5.78c6.67-7.65,30.39-11.33,34.69-11.97,13.28-1.98,27.5-2.89,27.5-2.89h0s-6.05-8.96-6.58-9.74c-10.63-15.72-36.88-51.75-36.88-51.75Z"/></svg>